# xmcd CD database file
#
# Track frame offsets:
#	150
#	20932
#	42220
#	58582
#	78407
#	106975
#	124197
#
# Disc length: 1934 seconds
#
# Revision: 4
# Processed by: cddbd v1.5.2PL0 Copyright (c) Steve Scherf et al.
# Submitted via: CDex 1.70beta2
#
DISCID=59078c07
DTITLE=Linda Clifford and Curtis Mayfield - The Right Combination
DYEAR=1980
DGENRE=Soul
TTITLE0=Rock you to your socks
TTITLE1=The right combination
TTITLE2=I'm so proud
TTITLE3=Ain't no love lost
TTITLE4=It's lovin' time 
TTITLE5=Loves sweet sensation
TTITLE6=Between you baby and me
EXTD=YEAR: 1980
EXTT0=
EXTT1=
EXTT2=
EXTT3=
EXTT4=
EXTT5=
EXTT6=
PLAYORDER=
